<svg width="32" height="32" viewBox="0 0 32 32" fill="none" xmlns="http://www.w3.org/2000/svg">
<circle cx="16" cy="16" r="16" fill="#3D82F0" fill-opacity="0.15"/>
<path fill-rule="evenodd" clip-rule="evenodd" d="M24.9313 11.8737L24.4448 11L20.2223 13.3511C18.9632 12.3231 17.3604 11.7345 15.6627 11.7519C12.7527 11.7351 10.1275 13.4978 9.04001 16.1986C9.0144 16.2691 9.00089 16.3435 9.00003 16.4186C8.99969 16.4894 9.01328 16.5597 9.04001 16.6253C9.36923 17.4477 9.84097 18.1836 10.42 18.8091L7 20.7133L7.48648 21.587L24.9313 11.8737ZM11.6292 18.1358L13.7383 16.9614C13.6898 16.7888 13.6638 16.6067 13.6638 16.4186C13.6638 15.314 14.5587 14.4186 15.6626 14.4186C16.2466 14.4186 16.772 14.6692 17.1375 15.0687L18.9196 14.0764C17.974 13.4433 16.8459 13.0866 15.6626 13.0866C13.4072 13.0866 11.3522 14.3826 10.3792 16.4186C10.6938 17.0738 11.1202 17.6524 11.6292 18.1358ZM22.3253 16.2186C22.0612 15.5568 21.7049 14.951 21.2747 14.4136L20.0682 15.0854C20.4153 15.4818 20.712 15.9288 20.9461 16.4186C19.9697 18.4518 17.917 19.7469 15.6626 19.7519C14.6871 19.7497 13.7494 19.506 12.9202 19.0654L11.5754 19.8142C12.7493 20.631 14.1682 21.0928 15.6627 21.0853C18.5726 21.1021 21.1978 19.3394 22.2853 16.6386C22.3138 16.5689 22.3274 16.4939 22.3253 16.4186C22.3361 16.3524 22.3361 16.2848 22.3253 16.2186ZM15.6626 18.4186C15.2783 18.4186 14.9193 18.3101 14.6146 18.122L17.6614 16.4255C17.6577 17.5269 16.7642 18.4186 15.6626 18.4186Z" fill="#3D82F0"/>
</svg>
