<?xml version="1.0" encoding="UTF-8"?>
<svg width="29px" height="29px" viewBox="0 0 29 29" version="1.1" xmlns="http://www.w3.org/2000/svg" xmlns:xlink="http://www.w3.org/1999/xlink">
    <!-- Generator: Sketch 54.1 (76490) - https://sketchapp.com -->
    <title>@1xicon</title>
    <desc>Created with Sketch.</desc>
    <defs>
        <linearGradient x1="20.607828%" y1="6.94190664%" x2="82.1265402%" y2="88.7898764%" id="linearGradient-1">
            <stop stop-color="#138EF0" offset="0%"></stop>
            <stop stop-color="#0855DC" offset="100%"></stop>
        </linearGradient>
    </defs>
    <g id="Design" stroke="none" stroke-width="1" fill="none" fill-rule="evenodd">
        <g id="Login" transform="translate(-106.000000, -76.000000)">
            <g id="Group" transform="translate(106.000000, 76.000000)">
                <g id="Group-2">
                    <g id="icon">
                        <circle id="Path" fill="#000000" opacity="0.552399554" cx="14.5" cy="14.5" r="14.5"></circle>
                        <path d="M18.6696905,15.6416385 C17.71607,16.1935159 16.7221361,16.0362849 15.9846788,15.2166615 C15.4734632,14.64805 15.186404,13.9650887 14.9987381,13.2354112 C14.7238424,12.161987 14.6925648,11.0732232 14.8211506,9.97644098 C14.967808,8.72451948 15.3337564,7.54476388 15.9534012,6.44588987 C16.0865049,6.2095204 16.2477586,5.99197681 16.3958061,5.76571754 C16.5101432,5.62905554 16.6164872,5.48472374 16.7409027,5.35817194 C17.1210998,4.96980086 17.5398726,4.63442117 18.0583864,4.4461623 C18.4649957,4.29869285 18.8771655,4.27080264 19.2942007,4.39595993 C19.8106293,4.55075056 20.1988196,4.88194672 20.5150713,5.30622644 C20.9957043,5.95223327 21.2448829,6.69550719 21.4019661,7.47503837 C21.4603511,7.76474786 21.4954515,8.05759499 21.5263816,8.35113938 C21.5691277,8.98076072 21.5691277,9.6096848 21.4912812,10.2365171 C21.2924944,11.8433415 20.8160317,13.3452289 19.8033312,14.6375912 C19.4877746,15.040256 19.1148756,15.3840028 18.6696905,15.6416385 M16.2310771,16.0192021 C15.6573062,15.9201919 15.1999576,15.6200236 14.8214982,15.1849364 C14.3978599,14.6982524 14.1215741,14.1320813 13.9255675,13.523029 C13.5763006,12.4391459 13.5074897,11.3273727 13.5940245,10.199214 C13.6454589,9.53124361 13.7566683,8.87233756 13.9359934,8.22842249 C14.0868211,7.68595803 14.2995091,7.1640626 14.5445173,6.65471777 C14.9632901,5.78384617 15.5342808,5.039875 16.3061435,4.45627249 C16.6724394,4.22617832 17.0533316,4.03443317 17.4884383,3.97342335 C17.8707206,3.92008334 18.2422294,3.98876296 18.6182562,4.07103906 C17.5443905,4.22827008 16.7947697,4.86381809 16.181728,5.70331321 C15.8018784,6.18616235 15.5262877,6.72862681 15.2885776,7.29131166 C14.9639852,8.05968676 14.7394812,8.86013559 14.6282719,9.6842911 C14.4485992,11.0163969 14.4757065,12.3418788 14.8819683,13.6391219 C14.9775388,13.9445196 15.0953513,14.2408531 15.2447889,14.5242872 C15.6385396,15.2713961 16.1719972,15.8661547 17.0442958,16.1384328 C16.7457681,16.0952029 16.4875538,16.0634778 16.2310771,16.0192021 M28.9489132,13.2619069 C28.6927841,10.3641148 27.6717429,7.76718825 25.8621576,5.49762296 C23.7561299,2.85572345 21.0478337,1.14675125 17.7626389,0.373843991 C16.0232546,-0.0350961143 14.2647562,-0.10377574 12.4947893,0.144447069 C6.94231306,0.922932368 2.35735854,4.80559729 0.668713497,10.166443 C0.0984178568,11.9758199 -0.122610801,13.8315643 0.0657500992,15.7197311 C0.552638699,20.5984249 2.91166783,24.316189 7.03857869,26.9200881 C7.22902477,27.040016 7.20956312,27.0452454 7.28184923,26.8409496 C7.46708236,26.3207973 7.78924206,25.9679863 8.30289041,25.7222039 C9.01532555,25.3812461 9.6864047,24.9524343 10.371385,24.5546502 C10.471821,24.4960808 10.5232553,24.5096773 10.5972791,24.592302 C11.1345594,25.1905469 11.5571551,25.8665357 11.9467355,26.5655339 C12.3352733,27.2631376 12.6779372,27.9840993 12.9969692,28.7165658 C13.0178209,28.7653737 13.0383251,28.8145301 13.0602195,28.8629894 C13.0744682,28.8943659 13.0925397,28.9281827 13.1335482,28.9191184 C13.1822023,28.908311 13.1644783,28.8664757 13.1613505,28.8354478 C13.0584818,27.7205369 12.906264,26.6132959 12.675852,25.5172109 C12.6508299,25.3976316 12.5601248,25.3198877 12.4808881,25.2024002 C12.4051267,25.4136685 12.3363159,25.6054136 12.2622921,25.8121498 C11.9237986,25.5457983 11.5974685,25.2892085 11.2711385,25.0326186 C11.2561947,25.0183249 11.2415985,25.0036825 11.2266547,24.9890401 L11.1807808,24.9705629 C11.20059,24.948948 11.2207467,24.9552233 11.2412509,24.9698656 C11.2589749,24.9820676 11.2770465,24.9946182 11.2947705,25.0068201 C11.5383885,25.1511519 11.7840918,25.2926947 12.0245821,25.4412101 C12.1062515,25.4921097 12.1441322,25.4907152 12.1771474,25.391705 C12.272023,25.1103625 12.3752392,24.8321577 12.4749801,24.5532557 C12.7397974,24.5985773 13.0042673,24.6445961 13.2687371,24.690615 C12.9378892,24.7533679 12.9479675,24.7537166 12.9368466,25.093977 C12.9285059,25.3376677 12.9816779,25.5555599 13.0876743,25.7748466 C13.3709107,26.3629813 13.6152238,26.9678501 13.7917687,27.5981687 C13.9220922,28.0632378 14.0576287,28.5269124 14.1566745,29 L14.3015943,29 C14.3332194,28.9623482 14.3502484,28.9201643 14.3544187,28.8696133 C14.405158,28.2473131 14.4652806,27.6260589 14.4743164,27.0009697 C14.4784867,26.6840672 14.434003,26.3734401 14.3384324,26.0715287 C14.0211381,25.0646923 13.3716058,24.3008494 12.5691605,23.6503104 C12.5545643,23.6381084 12.5368403,23.6286955 12.5048676,23.6524022 C12.5048676,23.7050449 12.5073003,23.7674492 12.5045201,23.8291563 C12.4937467,24.0693607 12.5177262,24.3102623 12.4728949,24.5487236 C11.9401324,24.4054376 11.4084126,24.2576196 10.8735649,24.1213062 C10.7508871,24.0899297 10.6761682,24.0453054 10.6855515,23.9100379 C10.6841614,23.3804727 10.6636572,22.8533478 10.4812043,22.3485351 C10.3043119,21.8576676 10.1044825,21.3737725 9.94149123,20.8783728 C9.7729395,20.3672848 9.75313033,20.3505507 10.2598281,20.0486393 C10.7561,19.7530031 11.2867773,19.528487 11.8257953,19.3241912 C11.9210183,19.2875853 12.0607251,19.1885751 12.1059039,19.2513281 C12.1608136,19.3276775 12.0579449,19.4528348 12.0019927,19.5480101 C11.9703675,19.602396 11.9397849,19.6445799 11.9762755,19.7177917 C12.2032121,20.1685671 12.4266735,20.6210857 12.6435318,21.0770905 C12.8739438,21.5613342 13.1043557,22.0462751 13.2669994,22.5605007 C13.3104406,22.6975113 13.2770778,22.7888517 13.1599604,22.8690361 C12.9841106,22.9910557 12.7954021,23.0869283 12.5993956,23.1699016 C12.5309323,23.1991863 12.5003497,23.2364895 12.5079954,23.3110958 C12.5128608,23.3637385 12.5128608,23.4181244 12.5079954,23.4707672 C12.4961794,23.5920896 12.5351027,23.6011539 12.6313683,23.5408413 C13.1095687,23.2438107 13.6294725,23.1130753 14.1924701,23.1514244 C14.4621528,23.1699016 14.7328782,23.175131 15.0029085,23.187333 C15.0560805,23.1890761 15.1061247,23.1932597 15.1558214,23.1604887 C15.6652994,22.8261549 16.1716496,22.4879862 16.6043237,22.0522017 C16.7436829,21.9117048 16.8378634,21.7485471 16.8844323,21.5533157 C16.9622789,21.2276976 17.0074577,20.8971987 17.0620198,20.5677457 C17.1443842,20.068511 17.2288339,19.5699736 17.2913892,19.0676014 C17.2955595,19.035179 17.3025101,18.9807931 17.3202341,18.9755637 C17.4352663,18.9410496 17.4008609,18.8497091 17.4025985,18.774057 C17.4053788,18.6387895 17.4025985,18.5028247 17.4036411,18.3672086 C17.4039887,18.3354835 17.3939103,18.3002721 17.4241454,18.2730792 C17.5492559,18.1601239 17.573583,17.8805246 17.4477774,17.7759363 C17.0488137,17.4440429 16.7071923,17.0364973 16.2140482,16.8276694 C15.915868,16.7018149 15.814737,16.3786371 15.5815448,16.1854975 C15.5235074,16.1370383 15.5589554,16.0777716 15.6406248,16.0739367 C15.6743352,16.0721935 15.708393,16.0767257 15.7417558,16.0805606 C16.2404604,16.1408732 16.7311719,16.2485991 17.225011,16.3381963 C17.6371808,16.4128026 18.0288464,16.4086191 18.3996602,16.1816626 C18.4973159,16.1216986 18.6113056,16.0878818 18.7193872,16.0470923 C18.7923684,16.0195508 18.8691723,16.0097892 18.9473664,16.0212939 C19.0001909,16.0289637 19.0585758,16.0394225 19.0787325,16.0962488 C19.0968041,16.1481943 19.0554481,16.1889838 19.0224328,16.2217547 C18.8914142,16.3503983 18.7597006,16.4790419 18.622774,16.6017588 C18.5202529,16.6934478 18.4816771,16.7969902 18.4945357,16.9364412 C18.509827,17.1037824 18.5501404,17.2728668 18.5119122,17.4422998 C18.4580451,17.6814583 18.4688185,17.924103 18.4715988,18.1657019 C18.4722938,18.2012619 18.4549174,18.2577396 18.5049616,18.2647121 C18.6144333,18.2800517 18.5939291,18.3609333 18.5994896,18.4292643 C18.6081778,18.5401279 18.6241642,18.6520373 18.6203413,18.7625523 C18.6130432,18.9793986 18.6568319,19.1481343 18.9098333,19.1892724 C19.048845,19.2115845 19.078385,19.3074571 19.0679591,19.4462109 C18.9828144,20.5959845 18.8837686,21.7429691 18.5918439,22.8638067 C18.503919,23.0952953 18.3461407,23.2772789 18.1800217,23.4536845 C17.4001658,24.2820235 16.5629677,25.0514445 15.7275071,25.8219113 C15.6524408,25.8909396 15.6235959,25.9571788 15.6295039,26.0593267 C15.6802432,26.9786575 15.7219467,27.8979883 15.6607815,28.8187137 C15.6531359,28.9285314 15.6892789,28.9456141 15.7890198,28.9358525 C19.5590181,28.5610779 22.7371738,26.9856301 25.2873441,24.1760407 C27.128207,22.1480743 28.2816569,19.7669482 28.7720208,17.0654334 C28.8724567,16.5121615 28.9395299,15.9550547 28.9725452,15.3937643 C28.9742828,15.3616906 28.9638569,15.3247361 29,15.3020753 L29,13.7315082 C28.9443953,13.5795066 28.9628144,13.4184407 28.9489132,13.2619069" id="Fill-1" fill="url(#linearGradient-1)"></path>
                    </g>
                </g>
            </g>
        </g>
    </g>
</svg>