<svg width="18" height="22" viewBox="0 0 18 22" fill="none" xmlns="http://www.w3.org/2000/svg">
<path fill-rule="evenodd" clip-rule="evenodd" d="M13.59 0.590001L17.12 4.12C17.6828 4.68207 17.9993 5.44462 18 6.24V12.09C17.9981 14.5573 16.8579 16.8857 14.91 18.4L10.83 21.58C10.4782 21.853 10.0453 22.0008 9.6 22H8.4C7.95467 22.0008 7.52181 21.853 7.17 21.58L3.09 18.4C1.14207 16.8857 0.00185209 14.5573 0 12.09V6.24C0.000700208 5.44462 0.31723 4.68207 0.88 4.12L4.41 0.590001C4.7858 0.211962 5.29696 -0.00042112 5.83 6.26926e-07H12.17C12.703 -0.00042112 13.2142 0.211962 13.59 0.590001ZM13.68 16.85C15.1497 15.7223 16.0079 13.9725 16 12.12V6.24C15.9989 5.97766 15.8947 5.72626 15.71 5.54L12.17 2H5.83L2.29 5.54C2.10526 5.72626 2.0011 5.97766 2 6.24V12.09C1.99206 13.9425 2.8503 15.6923 4.32 16.82L8.4 20H9.6L13.68 16.85Z" fill="white"/>
<path fill-rule="evenodd" clip-rule="evenodd" d="M12.82 6.99998C12.6256 6.80941 12.3144 6.80941 12.12 6.99998L7.37997 11.74L5.87997 10.25C5.78924 10.1533 5.66256 10.0985 5.52997 10.0985C5.39739 10.0985 5.27071 10.1533 5.17997 10.25L4.64997 10.78C4.55532 10.8739 4.50208 11.0017 4.50208 11.135C4.50208 11.2683 4.55532 11.3961 4.64997 11.49L6.99997 13.85C7.09071 13.9467 7.21739 14.0015 7.34997 14.0015C7.48256 14.0015 7.60924 13.9467 7.69997 13.85L13.32 8.22998C13.4146 8.1361 13.4679 8.0083 13.4679 7.87498C13.4679 7.74167 13.4146 7.61387 13.32 7.51998L12.82 6.99998Z" fill="#3D82F0"/>
</svg>
