<svg width="20" height="20" viewBox="0 0 20 20" fill="none" xmlns="http://www.w3.org/2000/svg">
<path fill-rule="evenodd" clip-rule="evenodd" d="M8.82812 1.15785C8.82812 1.79618 9.35394 2.31571 10 2.31571C10.6461 2.31571 11.1719 1.79618 11.1719 1.15785C11.1719 0.519527 10.6461 0 10 0C9.35394 0 8.82812 0.519527 8.82812 1.15785ZM12.8594 19.4211V12.4354C12.8594 12.1154 12.5972 11.8564 12.2734 11.8564H7.58594C7.26215 11.8564 7 12.1154 7 12.4354V19.4211C7 19.741 7.26215 20 7.58594 20H12.2734C12.5972 20 12.8594 19.741 12.8594 19.4211ZM19.5134 16.2486H15.5882C15.3193 16.2486 15.1016 16.5076 15.1016 16.8275V19.1818C15.1016 19.5017 15.3193 19.7607 15.5882 19.7607H19.5134C19.7823 19.7607 20 19.5017 20 19.1818V16.8275C20 16.5076 19.7823 16.2486 19.5134 16.2486ZM0.4866 19.7607C0.217703 19.7607 0 19.5017 0 19.1818V14.5118C0 14.1919 0.217703 13.9328 0.4866 13.9328H4.41184C4.68073 13.9328 4.89844 14.1919 4.89844 14.5118V19.1818C4.89844 19.5017 4.68073 19.7607 4.41184 19.7607H0.4866ZM4.72656 3.47356C4.08051 3.47356 3.55469 2.95404 3.55469 2.31571C3.55469 1.67738 4.08051 1.15785 4.72656 1.15785C5.37262 1.15785 5.89844 1.67738 5.89844 2.31571C5.89844 2.95404 5.37262 3.47356 4.72656 3.47356ZM16.4453 2.31571C16.4453 1.67738 15.9195 1.15785 15.2734 1.15785C14.6274 1.15785 14.1016 1.67738 14.1016 2.31571C14.1016 2.95404 14.6274 3.47356 15.2734 3.47356C15.9195 3.47356 16.4453 2.95404 16.4453 2.31571ZM15.1698 4.62101L14.0901 9.99403C14.0352 10.2642 13.7949 10.4593 13.5156 10.4593H6.48438C6.20514 10.4593 5.96481 10.2642 5.90988 9.99403L4.83017 4.62101C5.30548 4.60006 5.74234 4.44161 6.10321 4.18079L7.58362 6.37498L9.13666 3.30607C9.40445 3.41145 9.69452 3.47356 10 3.47356C10.3055 3.47356 10.5956 3.41145 10.8633 3.30607L12.4164 6.37498L13.8968 4.18079C14.2577 4.44161 14.6945 4.60006 15.1698 4.62101Z" fill="white"/>
</svg>
