<svg width="36" height="36" viewBox="0 0 36 36" fill="none" xmlns="http://www.w3.org/2000/svg">
<circle cx="18" cy="18" r="18" fill="#9FC4FF" fill-opacity="0.15"/>
<rect x="6" y="6" width="24" height="24" fill="#FF0000" fill-opacity="0.01"/>
<path fill-rule="evenodd" clip-rule="evenodd" d="M24.4 16.4V22L26.8 24.4V25.2H9.20001V24.4L11.6 22V16.4C11.2706 13.2424 13.4963 10.5507 16.4 10V9.20001C16.4471 8.27285 17.1199 7.60001 18 7.60001C18.8801 7.60001 19.553 8.27285 19.6 9.20001V10C22.5037 10.5507 24.7295 13.2424 24.4 16.4ZM20.3761 26C20.3761 27.217 19.5545 28.1116 17.988 28.1116C16.4216 28.1116 15.6 27.217 15.6 26H20.3761Z" fill="black"/>
<mask id="mask0" mask-type="alpha" maskUnits="userSpaceOnUse" x="9" y="7" width="18" height="22">
<path fill-rule="evenodd" clip-rule="evenodd" d="M24.4 16.4V22L26.8 24.4V25.2H9.20001V24.4L11.6 22V16.4C11.2706 13.2424 13.4963 10.5507 16.4 10V9.20001C16.4471 8.27285 17.1199 7.60001 18 7.60001C18.8801 7.60001 19.553 8.27285 19.6 9.20001V10C22.5037 10.5507 24.7295 13.2424 24.4 16.4ZM20.3761 26C20.3761 27.217 19.5545 28.1116 17.988 28.1116C16.4216 28.1116 15.6 27.217 15.6 26H20.3761Z" fill="white"/>
</mask>
<g mask="url(#mask0)">
<rect x="6" y="6" width="24" height="24" fill="white"/>
</g>
</svg>
