<?xml version="1.0" encoding="UTF-8"?>
<svg width="18px" height="17px" viewBox="0 0 18 17" version="1.1" xmlns="http://www.w3.org/2000/svg" xmlns:xlink="http://www.w3.org/1999/xlink">
    <title>Shape</title>
    <g id="Symbols" stroke="none" stroke-width="1" fill="none" fill-rule="evenodd">
        <path d="M9.45,0 C6.3,0 3.51,1.7 2.07,4.29473684 L0,2.23684211 L0,8.05263158 L5.85,8.05263158 L3.33,5.54736842 C4.5,3.31052632 6.75,1.78947368 9.45,1.78947368 C13.14,1.78947368 16.2,4.83157895 16.2,8.5 C16.2,12.1684211 13.14,15.2105263 9.45,15.2105263 C6.48,15.2105263 4.05,13.3315789 3.06,10.7368421 L1.17,10.7368421 C2.16,14.3157895 5.49,17 9.45,17 C14.22,17 18,13.1526316 18,8.5 C18,3.84736842 14.13,0 9.45,0 Z M8.1,4.47368421 L8.1,9.03684211 L12.33,11.5421053 L13.05,10.3789474 L9.45,8.23157895 L9.45,4.47368421 L8.1,4.47368421 L8.1,4.47368421 Z" id="Shape" fill="#3D82F0"></path>
    </g>
</svg>