<?xml version="1.0" encoding="UTF-8"?>
<svg width="14px" height="10px" viewBox="0 0 14 10" version="1.1" xmlns="http://www.w3.org/2000/svg" xmlns:xlink="http://www.w3.org/1999/xlink">
    <title>visible_outlined</title>
    <g id="Design" stroke="none" stroke-width="1" fill="none" fill-rule="evenodd">
        <g id="Menu---login" transform="translate(-141.000000, -150.000000)" fill="#6B7688" fill-rule="nonzero">
            <g id="visible_outlined" transform="translate(140.000000, 147.000000)">
                <path d="M14.6585473,7.8 L14.6585473,7.8 C13.5721399,5.0776398 10.9253766,3.30322788 7.99594029,3.33333333 C5.08599137,3.31650164 2.46075239,5.07917905 1.37330897,7.78 L1.37330897,7.78 C1.34770025,7.85055831 1.33418497,7.92493766 1.33332664,8 C1.33298069,8.07084584 1.34656394,8.14106873 1.37330897,8.20666667 L1.37330897,8.20666667 C2.45651889,10.9127258 5.0826999,12.681323 7.99594029,12.6666667 C10.9058892,12.6834984 13.5311282,10.9208209 14.6185716,8.22 L14.6185716,8.22 C14.647091,8.15026068 14.6607081,8.07532094 14.6585473,8 L14.6585473,8 C14.6693642,7.93377264 14.6693642,7.86622736 14.6585473,7.8 Z M7.99594029,11.3333333 C5.74159575,11.3282558 3.68886118,10.033183 2.71249297,8 C3.68548659,5.96398786 5.74049911,4.66799437 7.99594029,4.66799437 C10.2513815,4.66799437 12.306394,5.96398786 13.2793876,8 C12.3030194,10.033183 10.2502848,11.3282558 7.99594029,11.3333333 Z M7.99594029,6 C6.89204343,6 5.9971582,6.8954305 5.9971582,8 C5.9971582,9.1045695 6.89204343,10 7.99594029,10 C9.09983716,10 9.99472238,9.1045695 9.99472238,8 C9.99472238,6.8954305 9.09983716,6 7.99594029,6 Z" id="Icon-color"></path>
            </g>
        </g>
    </g>
</svg>