<svg width="18" height="18" viewBox="0 0 18 18" fill="none" xmlns="http://www.w3.org/2000/svg">
<path fill-rule="evenodd" clip-rule="evenodd" d="M9 0C4.02944 0 0 4.02944 0 9C0 13.9706 4.02944 18 9 18C13.9706 18 18 13.9706 18 9C18 4.02944 13.9706 0 9 0ZM15.92 8H13.35C13.2943 6.1973 12.8937 4.42197 12.17 2.77C14.1948 3.80134 15.593 5.75135 15.92 8ZM9 16H9.45C10.36 15.41 11.41 13.22 11.59 10H6.41C6.55 13.24 7.64 15.43 8.55 16H9ZM6.45 8C6.63 4.78 7.68 2.59 8.59 2H9H9.45C10.36 2.57 11.45 4.76 11.59 8H6.45ZM4.65 8C4.70571 6.1973 5.10626 4.42197 5.83 2.77C3.80522 3.80134 2.40704 5.75135 2.08 8H4.65ZM2.08 10H4.65C4.70571 11.8027 5.10626 13.578 5.83 15.23C3.80522 14.1987 2.40704 12.2487 2.08 10ZM13.35 10C13.2943 11.8027 12.8937 13.578 12.17 15.23C14.1948 14.1987 15.593 12.2487 15.92 10H13.35Z" fill="white"/>
</svg>
