<svg width="32" height="32" viewBox="0 0 32 32" fill="none" xmlns="http://www.w3.org/2000/svg">
<circle cx="16" cy="16" r="16" fill="#3D82F0" fill-opacity="0.15"/>
<path fill-rule="evenodd" clip-rule="evenodd" d="M22.6585 15.8001C21.5721 13.0777 18.9254 11.3033 15.9959 11.3334C13.086 11.3166 10.4607 13.0792 9.3733 15.7801C9.34769 15.8506 9.33417 15.925 9.33332 16.0001C9.33297 16.0709 9.34655 16.1411 9.3733 16.2067C10.4565 18.9128 13.0827 20.6814 15.9959 20.6667C18.9059 20.6835 21.5311 18.9209 22.6186 16.2201C22.6471 16.1503 22.6607 16.0754 22.6585 16.0001C22.6693 15.9338 22.6693 15.8663 22.6585 15.8001ZM15.9959 19.3334C13.7415 19.3283 11.6888 18.0332 10.7124 16C11.6854 13.964 13.7405 12.668 15.9959 12.668C18.2513 12.668 20.3063 13.964 21.2793 16C20.303 18.0332 18.2502 19.3283 15.9959 19.3334ZM13.9971 16.0001C13.9971 14.8955 14.892 14.0001 15.9959 14.0001C17.0998 14.0001 17.9947 14.8955 17.9947 16.0001C17.9947 17.1046 17.0998 18.0001 15.9959 18.0001C14.892 18.0001 13.9971 17.1046 13.9971 16.0001Z" fill="#3D82F0"/>
</svg>
