<svg width="50" height="67" viewBox="0 0 50 67" fill="none" xmlns="http://www.w3.org/2000/svg">
<path fill-rule="evenodd" clip-rule="evenodd" d="M3.91163 66.4897H46.6097C48.402 66.4897 49.8549 65.0368 49.8549 63.2437V14.5778L36.8212 0.541016H3.91163C2.11929 0.541016 0.665649 1.99466 0.665649 3.78699V63.2437C0.665649 65.0368 2.11929 66.4897 3.91163 66.4897" fill="#151821"/>
<path fill-rule="evenodd" clip-rule="evenodd" d="M40.8018 31.6866H19.6516C18.8125 31.6866 18.1321 31.0061 18.1321 30.167C18.1321 29.3272 18.8125 28.6467 19.6516 28.6467H40.8018C41.6409 28.6467 42.3214 29.3272 42.3214 30.167C42.3214 31.0061 41.6409 31.6866 40.8018 31.6866" fill="#687180"/>
<path fill-rule="evenodd" clip-rule="evenodd" d="M40.8018 39.558H19.6516C18.8125 39.558 18.1321 38.8776 18.1321 38.0385C18.1321 37.1986 18.8125 36.5182 19.6516 36.5182H40.8018C41.6409 36.5182 42.3214 37.1986 42.3214 38.0385C42.3214 38.8776 41.6409 39.558 40.8018 39.558" fill="#687180"/>
<path fill-rule="evenodd" clip-rule="evenodd" d="M40.8018 47.4294H19.6516C18.8125 47.4294 18.1321 46.7489 18.1321 45.9098C18.1321 45.07 18.8125 44.3895 19.6516 44.3895H40.8018C41.6409 44.3895 42.3214 45.07 42.3214 45.9098C42.3214 46.7489 41.6409 47.4294 40.8018 47.4294" fill="#687180"/>
<path fill-rule="evenodd" clip-rule="evenodd" d="M35.0574 55.3007H19.652C18.8122 55.3007 18.1317 54.6203 18.1317 53.7812C18.1317 52.9413 18.8122 52.2609 19.652 52.2609H35.0574C35.8965 52.2609 36.5769 52.9413 36.5769 53.7812C36.5769 54.6203 35.8965 55.3007 35.0574 55.3007" fill="#687180"/>
<path fill-rule="evenodd" clip-rule="evenodd" d="M36.8213 14.5782V0.541382L49.855 14.5782H36.8213Z" fill="#687180"/>
<path fill-rule="evenodd" clip-rule="evenodd" d="M11.1057 18.7011H11.3004C14.0414 18.7011 16.2636 16.4788 16.2636 13.7378C16.2636 10.9976 14.0414 8.77539 11.3004 8.77539H11.1057C8.36474 8.77539 6.14252 10.9976 6.14252 13.7378C6.14252 16.4788 8.36474 18.7011 11.1057 18.7011" fill="#3D82F0"/>
<path fill-rule="evenodd" clip-rule="evenodd" d="M11.2034 52.2101C10.3375 52.2101 9.63253 52.9151 9.63253 53.781C9.63253 54.6469 10.3375 55.3519 11.2034 55.3519C12.0693 55.3519 12.7735 54.6469 12.7735 53.781C12.7735 52.9151 12.0693 52.2101 11.2034 52.2101M11.2034 56.1113C9.91835 56.1113 8.87238 55.066 8.87238 53.781C8.87238 52.4959 9.91835 51.45 11.2034 51.45C12.4877 51.45 13.5337 52.4959 13.5337 53.781C13.5337 55.066 12.4877 56.1113 11.2034 56.1113" fill="#687180"/>
<path fill-rule="evenodd" clip-rule="evenodd" d="M11.2034 44.3388C10.3375 44.3388 9.63253 45.0437 9.63253 45.9096C9.63253 46.7755 10.3375 47.4805 11.2034 47.4805C12.0693 47.4805 12.7735 46.7755 12.7735 45.9096C12.7735 45.0437 12.0693 44.3388 11.2034 44.3388M11.2034 48.2399C9.91835 48.2399 8.87238 47.1947 8.87238 45.9096C8.87238 44.6246 9.91835 43.5786 11.2034 43.5786C12.4877 43.5786 13.5337 44.6246 13.5337 45.9096C13.5337 47.1947 12.4877 48.2399 11.2034 48.2399" fill="#687180"/>
<path fill-rule="evenodd" clip-rule="evenodd" d="M11.2034 36.4674C10.3375 36.4674 9.63253 37.1724 9.63253 38.0383C9.63253 38.9042 10.3375 39.6092 11.2034 39.6092C12.0693 39.6092 12.7735 38.9042 12.7735 38.0383C12.7735 37.1724 12.0693 36.4674 11.2034 36.4674M11.2034 40.3686C9.91835 40.3686 8.87238 39.3234 8.87238 38.0383C8.87238 36.7533 9.91835 35.7073 11.2034 35.7073C12.4877 35.7073 13.5337 36.7533 13.5337 38.0383C13.5337 39.3234 12.4877 40.3686 11.2034 40.3686" fill="#687180"/>
<path fill-rule="evenodd" clip-rule="evenodd" d="M11.2034 28.5962C10.3375 28.5962 9.63253 29.3012 9.63253 30.1671C9.63253 31.033 10.3375 31.738 11.2034 31.738C12.0693 31.738 12.7735 31.033 12.7735 30.1671C12.7735 29.3012 12.0693 28.5962 11.2034 28.5962M11.2034 32.4974C9.91835 32.4974 8.87238 31.4522 8.87238 30.1671C8.87238 28.882 9.91835 27.8361 11.2034 27.8361C12.4877 27.8361 13.5337 28.882 13.5337 30.1671C13.5337 31.4522 12.4877 32.4974 11.2034 32.4974" fill="#687180"/>
</svg>
