<svg width="20" height="19" viewBox="0 0 20 19" fill="none" xmlns="http://www.w3.org/2000/svg">
<path fill-rule="evenodd" clip-rule="evenodd" d="M2 0C0.89543 0 0 0.829858 0 1.85354V17.6086C0 18.1205 0.447715 18.5354 1 18.5354C1.18723 18.536 1.37086 18.4878 1.53 18.3964L7.47 14.9488C7.79427 14.761 8.20573 14.761 8.53 14.9488L14.47 18.3964C14.6291 18.4878 14.8128 18.536 15 18.5354C15.5523 18.5354 16 18.1205 16 17.6086V1.85354C16 0.829858 15.1046 0 14 0H2ZM2 2H14V15.7L9.59 13.2197C8.61719 12.6714 7.38281 12.6714 6.41 13.2197L2 15.7V2ZM20 16.1563C20 16.7086 19.5523 17.1563 19 17.1563H18V1.15633H19C19.5523 1.15633 20 1.60404 20 2.15633V16.1563Z" fill="#3D82F0"/>
</svg>
