<svg width="32" height="32" viewBox="0 0 32 32" fill="none" xmlns="http://www.w3.org/2000/svg">
<path fill-rule="evenodd" clip-rule="evenodd" d="M24.3722 8.85389L23.3417 8L20.9567 11.0033L18.66 9.88444L18.1006 9.61944L17.7472 10.0906L15.3917 13.6239L13.2717 12.0044L12.83 11.71L12.3883 12.0044L9.88556 13.8594L7.47111 13.2411L7.11778 14.625L9.88556 15.3022L10.2389 15.3906L10.4744 15.1844L12.8006 13.4178L15.1267 15.1844L15.745 15.6261L16.1867 15.0078L18.6011 11.3861L20.8094 12.4756L21.2806 12.7406L21.6044 12.2989L24.3722 8.85389ZM18.9544 17.6872L18.395 16.9217L17.8944 17.6283L15.5094 20.5728L13.3011 18.8944L12.8594 18.6L12.4178 18.8944L10.0033 20.72L7.61833 19.5422L7 20.7494L9.76778 22.1333L10.1506 22.31L10.5039 22.1039L12.83 20.3372L15.1561 22.1039L15.7156 22.4867L16.0983 21.9567L18.2478 19.2772L20.4856 22.6044L21.045 23.37L21.6044 22.6339L24.3722 19.1889L23.3417 18.335L21.1922 21.0144L18.9544 17.6872Z" fill="#6B7688"/>
</svg>
