<?xml version="1.0" encoding="UTF-8"?>
<svg width="14px" height="12px" viewBox="0 0 14 12" version="1.1" xmlns="http://www.w3.org/2000/svg" xmlns:xlink="http://www.w3.org/1999/xlink">
    <title>hidden_outlined</title>
    <g id="Design" stroke="none" stroke-width="1" fill="none" fill-rule="evenodd">
        <g id="Wallet" transform="translate(-119.000000, -113.000000)" fill="#6B7688" fill-rule="nonzero">
            <g id="hidden_outlined" transform="translate(118.000000, 111.000000)">
                <path d="M2.91903379,2.1 C2.85858173,2.03554852 2.77417932,1.99898757 2.68584254,1.99898757 C2.59750576,1.99898757 2.51310335,2.03554852 2.4526513,2.1 L2.09953313,2.45333333 C2.03512089,2.51382222 1.99858221,2.59827606 1.99858221,2.68666667 C1.99858221,2.77505727 2.03512089,2.85951111 2.09953313,2.92 L3.83181094,4.66666667 C2.70416016,5.42140206 1.84369556,6.51338797 1.37330897,7.78666667 L1.37330897,7.78666667 C1.34842655,7.85511524 1.3349224,7.92718126 1.33332664,8 C1.33298069,8.07084584 1.34656394,8.14106873 1.37330897,8.20666667 L1.37330897,8.20666667 C2.45651889,10.9127258 5.0826999,12.681323 7.99594029,12.6666667 C9.07435045,12.6603647 10.1376078,12.4120442 11.1073777,11.94 L13.0728468,13.9 C13.1332988,13.9644515 13.2177013,14.0010124 13.306038,14.0010124 C13.3943748,14.0010124 13.4787772,13.9644515 13.5392293,13.9 L13.8923475,13.5466667 C13.9567597,13.4861778 13.9932984,13.4017239 13.9932984,13.3133333 C13.9932984,13.2249427 13.9567597,13.1404889 13.8923475,13.08 L2.91903379,2.1 Z M7.99594029,11.3333333 C5.74159575,11.3282558 3.68886118,10.033183 2.71249297,8 C3.15589381,7.01873058 3.88205131,6.19231018 4.79788895,5.62666667 L6.23701205,7.06666667 C5.87196371,7.83148388 6.02834384,8.74348938 6.62729853,9.34280904 C7.22625323,9.9421287 8.13770337,10.0986041 8.90205484,9.73333333 L10.0746737,10.9066667 C9.41262249,11.1714136 8.70869111,11.3158978 7.99594029,11.3333333 Z M14.6585473,7.8 L14.6585473,7.8 C13.2947079,4.40797267 9.59037526,2.59496678 6.07710949,3.6 L7.20309006,4.72666667 C7.46551196,4.68694283 7.73053256,4.66688704 7.99594029,4.66666667 C10.2502848,4.67174422 12.3030194,5.96681696 13.2793876,8 C13.0126394,8.62416365 12.6176562,9.18519982 12.120094,9.64666667 L13.0661842,10.5933333 C13.7636075,9.93591713 14.2955771,9.12262711 14.6185716,8.22 L14.6185716,8.22 C14.647091,8.15026068 14.6607081,8.07532094 14.6585473,8 L14.6585473,8 C14.6693642,7.93377264 14.6693642,7.86622736 14.6585473,7.8 Z" id="Icon-color"></path>
            </g>
        </g>
    </g>
</svg>