<svg width="20" height="16" viewBox="0 0 20 16" fill="none" xmlns="http://www.w3.org/2000/svg">
<path d="M19.9916 13.0187C19.9803 11.5647 18.9317 10.3274 17.5018 10.0812C16.0719 9.83493 14.6713 10.6504 14.1765 12.0173H12.9975C11.8938 12.0173 10.9992 11.1206 10.9992 10.0145C10.9948 9.27336 10.7172 8.56004 10.2198 8.01163V8.01163C9.65491 7.37858 8.84905 7.01477 8.00168 7.01021H5.82352C5.33689 5.6307 3.92945 4.8032 2.4906 5.05063C1.05174 5.29806 0 6.54844 0 8.01163C0 9.47481 1.05174 10.7252 2.4906 10.9726C3.92945 11.2201 5.33689 10.3926 5.82352 9.01305H8.00168C8.5535 9.01305 9.00084 9.4614 9.00084 10.0145C9.00084 12.2268 10.7902 14.0202 12.9975 14.0202H14.1765C14.6713 15.3871 16.0719 16.2025 17.5018 15.9563C18.9317 15.7101 19.9803 14.4728 19.9916 13.0187Z" fill="white"/>
<path d="M10.9992 6.32927C10.9992 6.21911 10.9992 6.11897 10.9992 6.00881C10.9992 4.90267 11.8938 4.00597 12.9975 4.00597H14.1765C14.6631 5.38548 16.0705 6.21298 17.5094 5.96555C18.9483 5.71812 20 4.46773 20 3.00455C20 1.54136 18.9483 0.290975 17.5094 0.0435475C16.0705 -0.20388 14.6631 0.62362 14.1765 2.00313H12.9975C11.037 2.00808 9.36956 3.43752 9.06079 5.37792C9.771 5.5423 10.4341 5.86776 10.9992 6.32927Z" fill="#3D82F0"/>
</svg>
