<svg width="14" height="22" viewBox="0 0 14 22" fill="none" xmlns="http://www.w3.org/2000/svg">
<path fill-rule="evenodd" clip-rule="evenodd" d="M3 0H11C12.6569 0 14 1.34315 14 3V19C14 20.6569 12.6569 22 11 22H3C1.34315 22 0 20.6569 0 19V3C0 1.34315 1.34315 0 3 0ZM12 4C12 3.44772 11.5523 3 11 3H3C2.44772 3 2 3.44772 2 4V18C2 18.5523 2.44772 19 3 19H11C11.5523 19 12 18.5523 12 18V4Z" fill="white"/>
<path fill-rule="evenodd" clip-rule="evenodd" d="M6.35688 13.0069L5.7919 12.442L7.73612 10.4977C8.44251 10.8784 9.33824 10.7785 9.93534 10.1824C10.6626 9.45417 10.6626 8.2734 9.93534 7.54617C9.20716 6.81794 8.0263 6.81794 7.29807 7.54617C6.70198 8.14232 6.60264 9.03912 6.98312 9.74447L3.15548 13.5729C2.94817 13.7799 2.94817 14.1191 3.15548 14.3261C3.36248 14.5331 3.70168 14.5331 3.90866 14.3261L4.47355 14.891C4.57766 14.9951 4.74617 14.9951 4.85019 14.891L5.22682 14.5144C5.33105 14.4104 5.33105 14.2419 5.22682 14.1379L4.6619 13.5729L5.03848 13.1952L5.60365 13.7612C5.70768 13.8652 5.87626 13.8652 5.98028 13.7612L6.35688 13.3846C6.46089 13.2795 6.46089 13.1121 6.35688 13.0069ZM8.05133 8.29941C8.36342 7.98733 8.87017 7.98733 9.18225 8.29941C9.49318 8.61046 9.49318 9.11813 9.18225 9.42923C8.87017 9.74028 8.36342 9.74028 8.05133 9.42923C7.74023 9.11814 7.74023 8.61048 8.05133 8.29941Z" fill="#3D82F0"/>
</svg>
