<svg width="18" height="18" viewBox="0 0 18 18" fill="none" xmlns="http://www.w3.org/2000/svg">
<path fill-rule="evenodd" clip-rule="evenodd" d="M1.8 5.4C1.8 5.89706 1.39706 6.3 0.9 6.3V6.3C0.402944 6.3 0 5.89706 0 5.4V1C0 0.447715 0.447715 0 1 0H5.4C5.89706 0 6.3 0.402944 6.3 0.9V0.9C6.3 1.39706 5.89706 1.8 5.4 1.8H2.3C2.02386 1.8 1.8 2.02386 1.8 2.3V5.4ZM12.6 1.8C12.1029 1.8 11.7 1.39706 11.7 0.9C11.7 0.402944 12.1029 0 12.6 0H17C17.5523 0 18 0.447715 18 1V5.4C18 5.89706 17.5971 6.3 17.1 6.3C16.6029 6.3 16.2 5.89706 16.2 5.4V2.3C16.2 2.02386 15.9761 1.8 15.7 1.8H12.6Z" fill="#3D82F0"/>
<path fill-rule="evenodd" clip-rule="evenodd" d="M16.2 11.9C16.2 11.403 16.6029 11 17.1 11V11C17.5971 11 18 11.403 18 11.9V16.3C18 16.8523 17.5523 17.3 17 17.3H12.6C12.1029 17.3 11.7 16.8971 11.7 16.4V16.4C11.7 15.903 12.1029 15.5 12.6 15.5H15.7C15.9761 15.5 16.2 15.2762 16.2 15V11.9ZM5.4 15.5C5.89706 15.5 6.3 15.903 6.3 16.4V16.4C6.3 16.8971 5.89706 17.3 5.4 17.3L1 17.3C0.447715 17.3 0 16.8523 0 16.3V11.9C0 11.403 0.402944 11 0.9 11V11C1.39706 11 1.8 11.403 1.8 11.9V15C1.8 15.2762 2.02386 15.5 2.3 15.5H5.4Z" fill="#3D82F0"/>
<path fill-rule="evenodd" clip-rule="evenodd" d="M2.9 9.8C2.40294 9.8 2 9.39706 2 8.9C2 8.40294 2.40294 8 2.9 8L15.5 8C15.9971 8 16.4 8.40294 16.4 8.9C16.4 9.39706 15.9971 9.8 15.5 9.8H2.9Z" fill="#3D82F0"/>
</svg>
